<?xml version="1.0" encoding="UTF-8" standalone="no"?><svg xmlns="http://www.w3.org/2000/svg" xmlns:xlink="http://www.w3.org/1999/xlink" clip-rule="evenodd" stroke-miterlimit="4.00" viewBox="0 0 720 540"><desc>SVG generated by Keynote</desc><defs></defs><g transform="matrix(1.00, 0.00, -0.00, -1.00, 0.0, 540.0)"><path d="M 0.0 540.0 L 720.0 540.0 L 720.0 0.0 L 0.0 0.0 Z M 0.0 540.0 " fill="#000000"></path><text xml:space="preserve" font-family="Helvetica-Light" font-size="56.0" fill="#FEFFFF" transform="matrix(1.00, 0.00, -0.00, -1.00, 127.0, 445.0)">O</text><text xml:space="preserve" font-family="Helvetica-Light" font-size="56.0" fill="#FEFFFF" transform="matrix(1.00, 0.00, -0.00, -1.00, 170.6, 445.0)">t</text><text xml:space="preserve" font-family="Helvetica-Light" font-size="56.0" fill="#FEFFFF" transform="matrix(1.00, 0.00, -0.00, -1.00, 186.1, 445.0)">h</text><text xml:space="preserve" font-family="Helvetica-Light" font-size="56.0" fill="#FEFFFF" transform="matrix(1.00, 0.00, -0.00, -1.00, 217.3, 445.0)">e</text><text xml:space="preserve" font-family="Helvetica-Light" font-size="56.0" fill="#FEFFFF" transform="matrix(1.00, 0.00, -0.00, -1.00, 248.4, 445.0)">r</text><text xml:space="preserve" font-family="Helvetica-Light" font-size="56.0" fill="#FEFFFF" transform="matrix(1.00, 0.00, -0.00, -1.00, 267.1, 445.0)"> </text><text xml:space="preserve" font-family="Helvetica-Light" font-size="56.0" fill="#FEFFFF" transform="matrix(1.00, 0.00, -0.00, -1.00, 282.6, 445.0)">A</text><text xml:space="preserve" font-family="Helvetica-Light" font-size="56.0" fill="#FEFFFF" transform="matrix(1.00, 0.00, -0.00, -1.00, 320.0, 445.0)">p</text><text xml:space="preserve" font-family="Helvetica-Light" font-size="56.0" fill="#FEFFFF" transform="matrix(1.00, 0.00, -0.00, -1.00, 354.2, 445.0)">p</text><text xml:space="preserve" font-family="Helvetica-Light" font-size="56.0" fill="#FEFFFF" transform="matrix(1.00, 0.00, -0.00, -1.00, 388.4, 445.0)">l</text><text xml:space="preserve" font-family="Helvetica-Light" font-size="56.0" fill="#FEFFFF" transform="matrix(1.00, 0.00, -0.00, -1.00, 400.8, 445.0)">i</text><text xml:space="preserve" font-family="Helvetica-Light" font-size="56.0" fill="#FEFFFF" transform="matrix(1.00, 0.00, -0.00, -1.00, 413.3, 445.0)">c</text><text xml:space="preserve" font-family="Helvetica-Light" font-size="56.0" fill="#FEFFFF" transform="matrix(1.00, 0.00, -0.00, -1.00, 444.4, 445.0)">a</text><text xml:space="preserve" font-family="Helvetica-Light" font-size="56.0" fill="#FEFFFF" transform="matrix(1.00, 0.00, -0.00, -1.00, 475.5, 445.0)">t</text><text xml:space="preserve" font-family="Helvetica-Light" font-size="56.0" fill="#FEFFFF" transform="matrix(1.00, 0.00, -0.00, -1.00, 491.1, 445.0)">i</text><text xml:space="preserve" font-family="Helvetica-Light" font-size="56.0" fill="#FEFFFF" transform="matrix(1.00, 0.00, -0.00, -1.00, 503.5, 445.0)">o</text><text xml:space="preserve" font-family="Helvetica-Light" font-size="56.0" fill="#FEFFFF" transform="matrix(1.00, 0.00, -0.00, -1.00, 534.7, 445.0)">n</text><text xml:space="preserve" font-family="Helvetica-Light" font-size="56.0" fill="#FEFFFF" transform="matrix(1.00, 0.00, -0.00, -1.00, 565.8, 445.0)">s</text><text xml:space="preserve" font-family="Helvetica-Light" font-size="19.5" fill="#FEFFFF" transform="matrix(1.00, 0.00, -0.00, -1.00, 55.5, 231.2)">•</text><text xml:space="preserve" font-family="Helvetica-Light" font-size="26.0" fill="#0463C1" transform="matrix(1.00, 0.00, -0.00, -1.00, 79.0, 229.0)">h</text><text xml:space="preserve" font-family="Helvetica-Light" font-size="26.0" fill="#0463C1" transform="matrix(1.00, 0.00, -0.00, -1.00, 93.5, 229.0)">t</text><text xml:space="preserve" font-family="Helvetica-Light" font-size="26.0" fill="#0463C1" transform="matrix(1.00, 0.00, -0.00, -1.00, 100.7, 229.0)">t</text><text xml:space="preserve" font-family="Helvetica-Light" font-size="26.0" fill="#0463C1" transform="matrix(1.00, 0.00, -0.00, -1.00, 107.9, 229.0)">p</text><text xml:space="preserve" font-family="Helvetica-Light" font-size="26.0" fill="#0463C1" transform="matrix(1.00, 0.00, -0.00, -1.00, 123.8, 229.0)">s</text><text xml:space="preserve" font-family="Helvetica-Light" font-size="26.0" fill="#0463C1" transform="matrix(1.00, 0.00, -0.00, -1.00, 136.8, 229.0)">:</text><text xml:space="preserve" font-family="Helvetica-Light" font-size="26.0" fill="#0463C1" transform="matrix(1.00, 0.00, -0.00, -1.00, 144.0, 229.0)">/</text><text xml:space="preserve" font-family="Helvetica-Light" font-size="26.0" fill="#0463C1" transform="matrix(1.00, 0.00, -0.00, -1.00, 151.3, 229.0)">/</text><text xml:space="preserve" font-family="Helvetica-Light" font-size="26.0" fill="#0463C1" transform="matrix(1.00, 0.00, -0.00, -1.00, 158.5, 229.0)">p</text><text xml:space="preserve" font-family="Helvetica-Light" font-size="26.0" fill="#0463C1" transform="matrix(1.00, 0.00, -0.00, -1.00, 174.4, 229.0)">h</text><text xml:space="preserve" font-family="Helvetica-Light" font-size="26.0" fill="#0463C1" transform="matrix(1.00, 0.00, -0.00, -1.00, 188.8, 229.0)">o</text><text xml:space="preserve" font-family="Helvetica-Light" font-size="26.0" fill="#0463C1" transform="matrix(1.00, 0.00, -0.00, -1.00, 203.3, 229.0)">t</text><text xml:space="preserve" font-family="Helvetica-Light" font-size="26.0" fill="#0463C1" transform="matrix(1.00, 0.00, -0.00, -1.00, 210.5, 229.0)">o</text><text xml:space="preserve" font-family="Helvetica-Light" font-size="26.0" fill="#0463C1" transform="matrix(1.00, 0.00, -0.00, -1.00, 225.0, 229.0)">s</text><text xml:space="preserve" font-family="Helvetica-Light" font-size="26.0" fill="#0463C1" transform="matrix(1.00, 0.00, -0.00, -1.00, 238.0, 229.0)">y</text><text xml:space="preserve" font-family="Helvetica-Light" font-size="26.0" fill="#0463C1" transform="matrix(1.00, 0.00, -0.00, -1.00, 251.0, 229.0)">n</text><text xml:space="preserve" font-family="Helvetica-Light" font-size="26.0" fill="#0463C1" transform="matrix(1.00, 0.00, -0.00, -1.00, 265.4, 229.0)">t</text><text xml:space="preserve" font-family="Helvetica-Light" font-size="26.0" fill="#0463C1" transform="matrix(1.00, 0.00, -0.00, -1.00, 272.6, 229.0)">h</text><text xml:space="preserve" font-family="Helvetica-Light" font-size="26.0" fill="#0463C1" transform="matrix(1.00, 0.00, -0.00, -1.00, 287.1, 229.0)">.</text><text xml:space="preserve" font-family="Helvetica-Light" font-size="26.0" fill="#0463C1" transform="matrix(1.00, 0.00, -0.00, -1.00, 294.3, 229.0)">n</text><text xml:space="preserve" font-family="Helvetica-Light" font-size="26.0" fill="#0463C1" transform="matrix(1.00, 0.00, -0.00, -1.00, 308.8, 229.0)">e</text><text xml:space="preserve" font-family="Helvetica-Light" font-size="26.0" fill="#0463C1" transform="matrix(1.00, 0.00, -0.00, -1.00, 323.2, 229.0)">t</text><text xml:space="preserve" font-family="Helvetica-Light" font-size="26.0" fill="#0463C1" transform="matrix(1.00, 0.00, -0.00, -1.00, 330.5, 229.0)">/</text><text xml:space="preserve" font-family="Helvetica-Light" font-size="26.0" fill="#0463C1" transform="matrix(1.00, 0.00, -0.00, -1.00, 337.7, 229.0)">v</text><text xml:space="preserve" font-family="Helvetica-Light" font-size="26.0" fill="#0463C1" transform="matrix(1.00, 0.00, -0.00, -1.00, 350.7, 229.0)">i</text><text xml:space="preserve" font-family="Helvetica-Light" font-size="26.0" fill="#0463C1" transform="matrix(1.00, 0.00, -0.00, -1.00, 356.5, 229.0)">e</text><text xml:space="preserve" font-family="Helvetica-Light" font-size="26.0" fill="#0463C1" transform="matrix(1.00, 0.00, -0.00, -1.00, 370.9, 229.0)">w</text><text xml:space="preserve" font-family="Helvetica-Light" font-size="26.0" fill="#0463C1" transform="matrix(1.00, 0.00, -0.00, -1.00, 388.3, 229.0)">.</text><text xml:space="preserve" font-family="Helvetica-Light" font-size="26.0" fill="#0463C1" transform="matrix(1.00, 0.00, -0.00, -1.00, 395.5, 229.0)">a</text><text xml:space="preserve" font-family="Helvetica-Light" font-size="26.0" fill="#0463C1" transform="matrix(1.00, 0.00, -0.00, -1.00, 410.0, 229.0)">s</text><text xml:space="preserve" font-family="Helvetica-Light" font-size="26.0" fill="#0463C1" transform="matrix(1.00, 0.00, -0.00, -1.00, 423.0, 229.0)">p</text><text xml:space="preserve" font-family="Helvetica-Light" font-size="26.0" fill="#0463C1" transform="matrix(1.00, 0.00, -0.00, -1.00, 438.8, 229.0)">x</text><text xml:space="preserve" font-family="Helvetica-Light" font-size="26.0" fill="#0463C1" transform="matrix(1.00, 0.00, -0.00, -1.00, 451.8, 229.0)">?</text><text xml:space="preserve" font-family="Helvetica-Light" font-size="26.0" fill="#0463C1" transform="matrix(1.00, 0.00, -0.00, -1.00, 464.8, 229.0)">c</text><text xml:space="preserve" font-family="Helvetica-Light" font-size="26.0" fill="#0463C1" transform="matrix(1.00, 0.00, -0.00, -1.00, 479.3, 229.0)">i</text><text xml:space="preserve" font-family="Helvetica-Light" font-size="26.0" fill="#0463C1" transform="matrix(1.00, 0.00, -0.00, -1.00, 485.1, 229.0)">d</text><text xml:space="preserve" font-family="Helvetica-Light" font-size="26.0" fill="#0463C1" transform="matrix(1.00, 0.00, -0.00, -1.00, 501.0, 229.0)">=</text><text xml:space="preserve" font-family="Helvetica-Light" font-size="26.0" fill="#0463C1" transform="matrix(1.00, 0.00, -0.00, -1.00, 518.1, 229.0)">1</text><text xml:space="preserve" font-family="Helvetica-Light" font-size="26.0" fill="#0463C1" transform="matrix(1.00, 0.00, -0.00, -1.00, 532.6, 229.0)">3</text><text xml:space="preserve" font-family="Helvetica-Light" font-size="26.0" fill="#0463C1" transform="matrix(1.00, 0.00, -0.00, -1.00, 547.0, 229.0)">e</text><text xml:space="preserve" font-family="Helvetica-Light" font-size="26.0" fill="#0463C1" transform="matrix(1.00, 0.00, -0.00, -1.00, 561.5, 229.0)">6</text><text xml:space="preserve" font-family="Helvetica-Light" font-size="26.0" fill="#0463C1" transform="matrix(1.00, 0.00, -0.00, -1.00, 575.9, 229.0)">e</text><text xml:space="preserve" font-family="Helvetica-Light" font-size="26.0" fill="#0463C1" transform="matrix(1.00, 0.00, -0.00, -1.00, 590.4, 229.0)">4</text><text xml:space="preserve" font-family="Helvetica-Light" font-size="26.0" fill="#0463C1" transform="matrix(1.00, 0.00, -0.00, -1.00, 604.9, 229.0)">e</text><text xml:space="preserve" font-family="Helvetica-Light" font-size="26.0" fill="#0463C1" transform="matrix(1.00, 0.00, -0.00, -1.00, 619.3, 229.0)">2</text><text xml:space="preserve" font-family="Helvetica-Light" font-size="26.0" fill="#0463C1" transform="matrix(1.00, 0.00, -0.00, -1.00, 633.8, 229.0)">-</text><g><clipPath id="clip-1005"><path d="M 78.5 225.1 L 642.9 225.1 L 642.9 228.4 L 78.5 228.4 Z M 78.5 225.1 "></path></clipPath><g clip-path="url(#clip-1005)"><path d="M 26.8 169.8 L 590.2 169.8 " fill="none" stroke="#0463C1" stroke-width="1.30" stroke-miterlimit="0.00" transform="matrix(1.00, 0.00, 0.00, -1.00, 52.7, 396.6)"></path></g></g><text xml:space="preserve" font-family="Helvetica-Light" font-size="26.0" fill="#0463C1" transform="matrix(1.00, 0.00, -0.00, -1.00, 79.0, 198.0)">d</text><text xml:space="preserve" font-family="Helvetica-Light" font-size="26.0" fill="#0463C1" transform="matrix(1.00, 0.00, -0.00, -1.00, 94.9, 198.0)">e</text><text xml:space="preserve" font-family="Helvetica-Light" font-size="26.0" fill="#0463C1" transform="matrix(1.00, 0.00, -0.00, -1.00, 109.3, 198.0)">6</text><text xml:space="preserve" font-family="Helvetica-Light" font-size="26.0" fill="#0463C1" transform="matrix(1.00, 0.00, -0.00, -1.00, 123.8, 198.0)">6</text><text xml:space="preserve" font-family="Helvetica-Light" font-size="26.0" fill="#0463C1" transform="matrix(1.00, 0.00, -0.00, -1.00, 138.3, 198.0)">-</text><text xml:space="preserve" font-family="Helvetica-Light" font-size="26.0" fill="#0463C1" transform="matrix(1.00, 0.00, -0.00, -1.00, 146.9, 198.0)">4</text><text xml:space="preserve" font-family="Helvetica-Light" font-size="26.0" fill="#0463C1" transform="matrix(1.00, 0.00, -0.00, -1.00, 161.4, 198.0)">f</text><text xml:space="preserve" font-family="Helvetica-Light" font-size="26.0" fill="#0463C1" transform="matrix(1.00, 0.00, -0.00, -1.00, 168.6, 198.0)">3</text><text xml:space="preserve" font-family="Helvetica-Light" font-size="26.0" fill="#0463C1" transform="matrix(1.00, 0.00, -0.00, -1.00, 183.1, 198.0)">5</text><text xml:space="preserve" font-family="Helvetica-Light" font-size="26.0" fill="#0463C1" transform="matrix(1.00, 0.00, -0.00, -1.00, 197.5, 198.0)">-</text><text xml:space="preserve" font-family="Helvetica-Light" font-size="26.0" fill="#0463C1" transform="matrix(1.00, 0.00, -0.00, -1.00, 206.2, 198.0)">9</text><text xml:space="preserve" font-family="Helvetica-Light" font-size="26.0" fill="#0463C1" transform="matrix(1.00, 0.00, -0.00, -1.00, 220.6, 198.0)">9</text><text xml:space="preserve" font-family="Helvetica-Light" font-size="26.0" fill="#0463C1" transform="matrix(1.00, 0.00, -0.00, -1.00, 235.1, 198.0)">b</text><text xml:space="preserve" font-family="Helvetica-Light" font-size="26.0" fill="#0463C1" transform="matrix(1.00, 0.00, -0.00, -1.00, 251.0, 198.0)">c</text><text xml:space="preserve" font-family="Helvetica-Light" font-size="26.0" fill="#0463C1" transform="matrix(1.00, 0.00, -0.00, -1.00, 265.4, 198.0)">-</text><text xml:space="preserve" font-family="Helvetica-Light" font-size="26.0" fill="#0463C1" transform="matrix(1.00, 0.00, -0.00, -1.00, 274.1, 198.0)">d</text><text xml:space="preserve" font-family="Helvetica-Light" font-size="26.0" fill="#0463C1" transform="matrix(1.00, 0.00, -0.00, -1.00, 290.0, 198.0)">3</text><text xml:space="preserve" font-family="Helvetica-Light" font-size="26.0" fill="#0463C1" transform="matrix(1.00, 0.00, -0.00, -1.00, 304.4, 198.0)">c</text><text xml:space="preserve" font-family="Helvetica-Light" font-size="26.0" fill="#0463C1" transform="matrix(1.00, 0.00, -0.00, -1.00, 318.9, 198.0)">f</text><text xml:space="preserve" font-family="Helvetica-Light" font-size="26.0" fill="#0463C1" transform="matrix(1.00, 0.00, -0.00, -1.00, 326.1, 198.0)">4</text><text xml:space="preserve" font-family="Helvetica-Light" font-size="26.0" fill="#0463C1" transform="matrix(1.00, 0.00, -0.00, -1.00, 340.6, 198.0)">0</text><text xml:space="preserve" font-family="Helvetica-Light" font-size="26.0" fill="#0463C1" transform="matrix(1.00, 0.00, -0.00, -1.00, 355.0, 198.0)">5</text><text xml:space="preserve" font-family="Helvetica-Light" font-size="26.0" fill="#0463C1" transform="matrix(1.00, 0.00, -0.00, -1.00, 369.5, 198.0)">3</text><text xml:space="preserve" font-family="Helvetica-Light" font-size="26.0" fill="#0463C1" transform="matrix(1.00, 0.00, -0.00, -1.00, 383.9, 198.0)">8</text><text xml:space="preserve" font-family="Helvetica-Light" font-size="26.0" fill="#0463C1" transform="matrix(1.00, 0.00, -0.00, -1.00, 398.4, 198.0)">a</text><text xml:space="preserve" font-family="Helvetica-Light" font-size="26.0" fill="#0463C1" transform="matrix(1.00, 0.00, -0.00, -1.00, 412.8, 198.0)">3</text><text xml:space="preserve" font-family="Helvetica-Light" font-size="26.0" fill="#0463C1" transform="matrix(1.00, 0.00, -0.00, -1.00, 427.3, 198.0)">6</text><g><clipPath id="clip-1006"><path d="M 78.5 194.1 L 442.2 194.1 L 442.2 197.4 L 78.5 197.4 Z M 78.5 194.1 "></path></clipPath><g clip-path="url(#clip-1006)"><path d="M 26.8 200.8 L 389.5 200.8 " fill="none" stroke="#0463C1" stroke-width="1.30" stroke-miterlimit="0.00" transform="matrix(1.00, 0.00, 0.00, -1.00, 52.7, 396.6)"></path></g></g></g></svg>