<?xml version="1.0" encoding="UTF-8" standalone="no"?><svg xmlns="http://www.w3.org/2000/svg" xmlns:xlink="http://www.w3.org/1999/xlink" clip-rule="evenodd" stroke-miterlimit="4.00" viewBox="0 0 720 540"><desc>SVG generated by Keynote</desc><defs></defs><g transform="matrix(1.00, 0.00, -0.00, -1.00, 0.0, 540.0)"><path d="M 0.0 540.0 L 720.0 540.0 L 720.0 0.0 L 0.0 0.0 Z M 0.0 540.0 " fill="#000000"></path><text xml:space="preserve" font-family="Helvetica-Light" font-size="56.0" fill="#FEFFFF" transform="matrix(1.00, 0.00, -0.00, -1.00, 130.0, 445.0)">E</text><text xml:space="preserve" font-family="Helvetica-Light" font-size="56.0" fill="#FEFFFF" transform="matrix(1.00, 0.00, -0.00, -1.00, 164.2, 445.0)">S</text><text xml:space="preserve" font-family="Helvetica-Light" font-size="56.0" fill="#FEFFFF" transform="matrix(1.00, 0.00, -0.00, -1.00, 198.4, 445.0)">A</text><text xml:space="preserve" font-family="Helvetica-Light" font-size="56.0" fill="#FEFFFF" transform="matrix(1.00, 0.00, -0.00, -1.00, 235.8, 445.0)"> </text><text xml:space="preserve" font-family="Helvetica-Light" font-size="56.0" fill="#FEFFFF" transform="matrix(1.00, 0.00, -0.00, -1.00, 251.4, 445.0)">F</text><text xml:space="preserve" font-family="Helvetica-Light" font-size="56.0" fill="#FEFFFF" transform="matrix(1.00, 0.00, -0.00, -1.00, 282.5, 445.0)">l</text><text xml:space="preserve" font-family="Helvetica-Light" font-size="56.0" fill="#FEFFFF" transform="matrix(1.00, 0.00, -0.00, -1.00, 294.9, 445.0)">u</text><text xml:space="preserve" font-family="Helvetica-Light" font-size="56.0" fill="#FEFFFF" transform="matrix(1.00, 0.00, -0.00, -1.00, 326.1, 445.0)">o</text><text xml:space="preserve" font-family="Helvetica-Light" font-size="56.0" fill="#FEFFFF" transform="matrix(1.00, 0.00, -0.00, -1.00, 357.2, 445.0)">r</text><text xml:space="preserve" font-family="Helvetica-Light" font-size="56.0" fill="#FEFFFF" transform="matrix(1.00, 0.00, -0.00, -1.00, 374.8, 445.0)">e</text><text xml:space="preserve" font-family="Helvetica-Light" font-size="56.0" fill="#FEFFFF" transform="matrix(1.00, 0.00, -0.00, -1.00, 406.0, 445.0)">s</text><text xml:space="preserve" font-family="Helvetica-Light" font-size="56.0" fill="#FEFFFF" transform="matrix(1.00, 0.00, -0.00, -1.00, 434.0, 445.0)">c</text><text xml:space="preserve" font-family="Helvetica-Light" font-size="56.0" fill="#FEFFFF" transform="matrix(1.00, 0.00, -0.00, -1.00, 465.1, 445.0)">e</text><text xml:space="preserve" font-family="Helvetica-Light" font-size="56.0" fill="#FEFFFF" transform="matrix(1.00, 0.00, -0.00, -1.00, 496.2, 445.0)">n</text><text xml:space="preserve" font-family="Helvetica-Light" font-size="56.0" fill="#FEFFFF" transform="matrix(1.00, 0.00, -0.00, -1.00, 527.4, 445.0)">c</text><text xml:space="preserve" font-family="Helvetica-Light" font-size="56.0" fill="#FEFFFF" transform="matrix(1.00, 0.00, -0.00, -1.00, 558.5, 445.0)">e</text><image xlink:href="../../E28D3429-15AA-4AF6-9FAE-6202B1D39BC3/assets/A7A3D88961361DE692CD49E0161FB298.png" width="720.00" height="404.00" transform="matrix(1.00, 0.00, -0.00, -1.00, 0.0, 414.0)"></image></g></svg>