<?xml version="1.0" encoding="UTF-8" standalone="no"?><svg xmlns="http://www.w3.org/2000/svg" xmlns:xlink="http://www.w3.org/1999/xlink" clip-rule="evenodd" stroke-miterlimit="4.00" viewBox="0 0 294 46"><desc>SVG generated by Keynote</desc><defs></defs><g transform="matrix(1.00, 0.00, -0.00, -1.00, 0.0, 46.0)"><text xml:space="preserve" font-family="Arial-Black" font-weight="bold" font-size="56.0" fill="#A0CCA2" transform="matrix(1.00, 0.00, -0.00, -1.00, -2.0, 3.0)">P</text><text xml:space="preserve" font-family="Arial-Black" font-weight="bold" font-size="56.0" fill="#A0CCA2" transform="matrix(1.00, 0.00, -0.00, -1.00, 38.5, 3.0)">l</text><text xml:space="preserve" font-family="Arial-Black" font-weight="bold" font-size="56.0" fill="#A0CCA2" transform="matrix(1.00, 0.00, -0.00, -1.00, 57.1, 3.0)">a</text><text xml:space="preserve" font-family="Arial-Black" font-weight="bold" font-size="56.0" fill="#A0CCA2" transform="matrix(1.00, 0.00, -0.00, -1.00, 93.5, 3.0)">t</text><text xml:space="preserve" font-family="Arial-Black" font-weight="bold" font-size="56.0" fill="#A0CCA2" transform="matrix(1.00, 0.00, -0.00, -1.00, 118.3, 3.0)">f</text><text xml:space="preserve" font-family="Arial-Black" font-weight="bold" font-size="56.0" fill="#A0CCA2" transform="matrix(1.00, 0.00, -0.00, -1.00, 139.2, 3.0)">o</text><text xml:space="preserve" font-family="Arial-Black" font-weight="bold" font-size="56.0" fill="#A0CCA2" transform="matrix(1.00, 0.00, -0.00, -1.00, 176.5, 3.0)">r</text><text xml:space="preserve" font-family="Arial-Black" font-weight="bold" font-size="56.0" fill="#A0CCA2" transform="matrix(1.00, 0.00, -0.00, -1.00, 204.2, 3.0)">m</text><text xml:space="preserve" font-family="Arial-Black" font-weight="bold" font-size="56.0" fill="#A0CCA2" transform="matrix(1.00, 0.00, -0.00, -1.00, 260.2, 3.0)">s</text></g></svg>