<?xml version="1.0" encoding="UTF-8" standalone="no"?><svg xmlns="http://www.w3.org/2000/svg" xmlns:xlink="http://www.w3.org/1999/xlink" clip-rule="evenodd" stroke-miterlimit="4.00" viewBox="0 0 99 16"><desc>SVG generated by Keynote</desc><defs></defs><g transform="matrix(1.00, 0.00, -0.00, -1.00, 0.0, 16.0)"><text xml:space="preserve" font-family="Aller-Bold" font-weight="bold" font-size="16.0" fill="#FEFFFF" transform="matrix(1.00, 0.00, -0.00, -1.00, 1.0, 2.0)">O</text><text xml:space="preserve" font-family="Aller-Bold" font-weight="bold" font-size="16.0" fill="#FEFFFF" transform="matrix(1.00, 0.00, -0.00, -1.00, 12.6, 2.0)">t</text><text xml:space="preserve" font-family="Aller-Bold" font-weight="bold" font-size="16.0" fill="#FEFFFF" transform="matrix(1.00, 0.00, -0.00, -1.00, 18.7, 2.0)">h</text><text xml:space="preserve" font-family="Aller-Bold" font-weight="bold" font-size="16.0" fill="#FEFFFF" transform="matrix(1.00, 0.00, -0.00, -1.00, 28.1, 2.0)">e</text><text xml:space="preserve" font-family="Aller-Bold" font-weight="bold" font-size="16.0" fill="#FEFFFF" transform="matrix(1.00, 0.00, -0.00, -1.00, 37.1, 2.0)">r</text><text xml:space="preserve" font-family="Aller-Bold" font-weight="bold" font-size="16.0" fill="#FEFFFF" transform="matrix(1.00, 0.00, -0.00, -1.00, 43.5, 2.0)"> </text><text xml:space="preserve" font-family="Aller-Bold" font-weight="bold" font-size="16.0" fill="#FEFFFF" transform="matrix(1.00, 0.00, -0.00, -1.00, 47.1, 2.0)">f</text><text xml:space="preserve" font-family="Aller-Bold" font-weight="bold" font-size="16.0" fill="#FEFFFF" transform="matrix(1.00, 0.00, -0.00, -1.00, 53.2, 2.0)">a</text><text xml:space="preserve" font-family="Aller-Bold" font-weight="bold" font-size="16.0" fill="#FEFFFF" transform="matrix(1.00, 0.00, -0.00, -1.00, 61.6, 2.0)">c</text><text xml:space="preserve" font-family="Aller-Bold" font-weight="bold" font-size="16.0" fill="#FEFFFF" transform="matrix(1.00, 0.00, -0.00, -1.00, 69.2, 2.0)">t</text><text xml:space="preserve" font-family="Aller-Bold" font-weight="bold" font-size="16.0" fill="#FEFFFF" transform="matrix(1.00, 0.00, -0.00, -1.00, 75.3, 2.0)">o</text><text xml:space="preserve" font-family="Aller-Bold" font-weight="bold" font-size="16.0" fill="#FEFFFF" transform="matrix(1.00, 0.00, -0.00, -1.00, 84.6, 2.0)">r</text><text xml:space="preserve" font-family="Aller-Bold" font-weight="bold" font-size="16.0" fill="#FEFFFF" transform="matrix(1.00, 0.00, -0.00, -1.00, 90.9, 2.0)">s</text></g></svg>