<?xml version="1.0" encoding="UTF-8" standalone="no"?><svg xmlns="http://www.w3.org/2000/svg" xmlns:xlink="http://www.w3.org/1999/xlink" clip-rule="evenodd" stroke-miterlimit="4.00" viewBox="0 0 236 330"><desc>SVG generated by Keynote</desc><defs></defs><g transform="matrix(1.00, 0.00, -0.00, -1.00, 0.0, 330.0)"><text xml:space="preserve" font-family="Aller" font-size="19.5" fill="#FEFFFF" transform="matrix(1.00, 0.00, -0.00, -1.00, 0.5, 310.7)">•</text><text xml:space="preserve" font-family="Aller" font-size="26.0" fill="#FEFFFF" transform="matrix(1.00, 0.00, -0.00, -1.00, 24.0, 309.0)">F</text><text xml:space="preserve" font-family="Aller" font-size="26.0" fill="#FEFFFF" transform="matrix(1.00, 0.00, -0.00, -1.00, 37.1, 309.0)">i</text><text xml:space="preserve" font-family="Aller" font-size="26.0" fill="#FEFFFF" transform="matrix(1.00, 0.00, -0.00, -1.00, 44.6, 309.0)">x</text><text xml:space="preserve" font-family="Aller" font-size="26.0" fill="#FEFFFF" transform="matrix(1.00, 0.00, -0.00, -1.00, 57.5, 309.0)">e</text><text xml:space="preserve" font-family="Aller" font-size="26.0" fill="#FEFFFF" transform="matrix(1.00, 0.00, -0.00, -1.00, 72.0, 309.0)">d</text><text xml:space="preserve" font-family="Aller" font-size="26.0" fill="#FEFFFF" transform="matrix(1.00, 0.00, -0.00, -1.00, 87.2, 309.0)">-</text><text xml:space="preserve" font-family="Aller" font-size="26.0" fill="#FEFFFF" transform="matrix(1.00, 0.00, -0.00, -1.00, 96.6, 309.0)">w</text><text xml:space="preserve" font-family="Aller" font-size="26.0" fill="#FEFFFF" transform="matrix(1.00, 0.00, -0.00, -1.00, 116.7, 309.0)">i</text><text xml:space="preserve" font-family="Aller" font-size="26.0" fill="#FEFFFF" transform="matrix(1.00, 0.00, -0.00, -1.00, 124.2, 309.0)">n</text><text xml:space="preserve" font-family="Aller" font-size="26.0" fill="#FEFFFF" transform="matrix(1.00, 0.00, -0.00, -1.00, 139.3, 309.0)">g</text><text xml:space="preserve" font-family="Aller" font-size="26.0" fill="#FEFFFF" transform="matrix(1.00, 0.00, -0.00, -1.00, 153.6, 309.0)"> </text><text xml:space="preserve" font-family="Aller" font-size="19.5" fill="#FEFFFF" transform="matrix(1.00, 0.00, -0.00, -1.00, 0.5, 250.2)">•</text><text xml:space="preserve" font-family="Aller" font-size="26.0" fill="#FEFFFF" transform="matrix(1.00, 0.00, -0.00, -1.00, 24.0, 248.0)">R</text><text xml:space="preserve" font-family="Aller" font-size="26.0" fill="#FEFFFF" transform="matrix(1.00, 0.00, -0.00, -1.00, 39.1, 248.0)">o</text><text xml:space="preserve" font-family="Aller" font-size="26.0" fill="#FEFFFF" transform="matrix(1.00, 0.00, -0.00, -1.00, 54.1, 248.0)">t</text><text xml:space="preserve" font-family="Aller" font-size="26.0" fill="#FEFFFF" transform="matrix(1.00, 0.00, -0.00, -1.00, 63.4, 248.0)">o</text><text xml:space="preserve" font-family="Aller" font-size="26.0" fill="#FEFFFF" transform="matrix(1.00, 0.00, -0.00, -1.00, 78.4, 248.0)">r</text><text xml:space="preserve" font-family="Aller" font-size="26.0" fill="#FEFFFF" transform="matrix(1.00, 0.00, -0.00, -1.00, 87.7, 248.0)">c</text><text xml:space="preserve" font-family="Aller" font-size="26.0" fill="#FEFFFF" transform="matrix(1.00, 0.00, -0.00, -1.00, 100.2, 248.0)">r</text><text xml:space="preserve" font-family="Aller" font-size="26.0" fill="#FEFFFF" transform="matrix(1.00, 0.00, -0.00, -1.00, 109.6, 248.0)">a</text><text xml:space="preserve" font-family="Aller" font-size="26.0" fill="#FEFFFF" transform="matrix(1.00, 0.00, -0.00, -1.00, 123.0, 248.0)">f</text><text xml:space="preserve" font-family="Aller" font-size="26.0" fill="#FEFFFF" transform="matrix(1.00, 0.00, -0.00, -1.00, 132.6, 248.0)">t</text><text xml:space="preserve" font-family="Aller" font-size="26.0" fill="#FEFFFF" transform="matrix(1.00, 0.00, -0.00, -1.00, 141.9, 248.0)"> </text><text xml:space="preserve" font-family="Aller" font-size="19.5" fill="#FEFFFF" transform="matrix(1.00, 0.00, -0.00, -1.00, 35.5, 189.6)">•</text><text xml:space="preserve" font-family="Aller" font-size="26.0" fill="#FEFFFF" transform="matrix(1.00, 0.00, -0.00, -1.00, 59.0, 188.0)">4</text><text xml:space="preserve" font-family="Aller" font-size="26.0" fill="#FEFFFF" transform="matrix(1.00, 0.00, -0.00, -1.00, 74.6, 188.0)"> </text><text xml:space="preserve" font-family="Aller" font-size="26.0" fill="#FEFFFF" transform="matrix(1.00, 0.00, -0.00, -1.00, 80.8, 188.0)">r</text><text xml:space="preserve" font-family="Aller" font-size="26.0" fill="#FEFFFF" transform="matrix(1.00, 0.00, -0.00, -1.00, 90.0, 188.0)">o</text><text xml:space="preserve" font-family="Aller" font-size="26.0" fill="#FEFFFF" transform="matrix(1.00, 0.00, -0.00, -1.00, 105.0, 188.0)">t</text><text xml:space="preserve" font-family="Aller" font-size="26.0" fill="#FEFFFF" transform="matrix(1.00, 0.00, -0.00, -1.00, 114.4, 188.0)">o</text><text xml:space="preserve" font-family="Aller" font-size="26.0" fill="#FEFFFF" transform="matrix(1.00, 0.00, -0.00, -1.00, 129.4, 188.0)">r</text><text xml:space="preserve" font-family="Aller" font-size="26.0" fill="#FEFFFF" transform="matrix(1.00, 0.00, -0.00, -1.00, 139.0, 188.0)"> </text><text xml:space="preserve" font-family="Aller" font-size="19.5" fill="#FEFFFF" transform="matrix(1.00, 0.00, -0.00, -1.00, 35.5, 129.1)">•</text><text xml:space="preserve" font-family="Aller" font-size="26.0" fill="#FEFFFF" transform="matrix(1.00, 0.00, -0.00, -1.00, 59.0, 127.0)">8</text><text xml:space="preserve" font-family="Aller" font-size="26.0" fill="#FEFFFF" transform="matrix(1.00, 0.00, -0.00, -1.00, 74.6, 127.0)"> </text><text xml:space="preserve" font-family="Aller" font-size="26.0" fill="#FEFFFF" transform="matrix(1.00, 0.00, -0.00, -1.00, 80.8, 127.0)">r</text><text xml:space="preserve" font-family="Aller" font-size="26.0" fill="#FEFFFF" transform="matrix(1.00, 0.00, -0.00, -1.00, 90.0, 127.0)">o</text><text xml:space="preserve" font-family="Aller" font-size="26.0" fill="#FEFFFF" transform="matrix(1.00, 0.00, -0.00, -1.00, 105.0, 127.0)">t</text><text xml:space="preserve" font-family="Aller" font-size="26.0" fill="#FEFFFF" transform="matrix(1.00, 0.00, -0.00, -1.00, 114.4, 127.0)">o</text><text xml:space="preserve" font-family="Aller" font-size="26.0" fill="#FEFFFF" transform="matrix(1.00, 0.00, -0.00, -1.00, 129.4, 127.0)">r</text><text xml:space="preserve" font-family="Aller" font-size="26.0" fill="#FEFFFF" transform="matrix(1.00, 0.00, -0.00, -1.00, 139.0, 127.0)"> </text><text xml:space="preserve" font-family="Aller" font-size="19.5" fill="#FEFFFF" transform="matrix(1.00, 0.00, -0.00, -1.00, 0.5, 68.6)">•</text><text xml:space="preserve" font-family="Aller" font-size="26.0" fill="#FEFFFF" transform="matrix(1.00, 0.00, -0.00, -1.00, 24.0, 67.0)">K</text><text xml:space="preserve" font-family="Aller" font-size="26.0" fill="#FEFFFF" transform="matrix(1.00, 0.00, -0.00, -1.00, 39.6, 67.0)">i</text><text xml:space="preserve" font-family="Aller" font-size="26.0" fill="#FEFFFF" transform="matrix(1.00, 0.00, -0.00, -1.00, 47.1, 67.0)">t</text><text xml:space="preserve" font-family="Aller" font-size="26.0" fill="#FEFFFF" transform="matrix(1.00, 0.00, -0.00, -1.00, 56.4, 67.0)">e</text><text xml:space="preserve" font-family="Aller" font-size="26.0" fill="#FEFFFF" transform="matrix(1.00, 0.00, -0.00, -1.00, 70.9, 67.0)">s</text><text xml:space="preserve" font-family="Aller" font-size="26.0" fill="#FEFFFF" transform="matrix(1.00, 0.00, -0.00, -1.00, 82.7, 67.0)"> </text><text xml:space="preserve" font-family="Aller" font-size="19.5" fill="#FEFFFF" transform="matrix(1.00, 0.00, -0.00, -1.00, 0.5, 8.0)">•</text><text xml:space="preserve" font-family="Aller" font-size="26.0" fill="#FEFFFF" transform="matrix(1.00, 0.00, -0.00, -1.00, 24.0, 6.0)">A</text><text xml:space="preserve" font-family="Aller" font-size="26.0" fill="#FEFFFF" transform="matrix(1.00, 0.00, -0.00, -1.00, 39.9, 6.0)">e</text><text xml:space="preserve" font-family="Aller" font-size="26.0" fill="#FEFFFF" transform="matrix(1.00, 0.00, -0.00, -1.00, 54.3, 6.0)">r</text><text xml:space="preserve" font-family="Aller" font-size="26.0" fill="#FEFFFF" transform="matrix(1.00, 0.00, -0.00, -1.00, 63.6, 6.0)">o</text><text xml:space="preserve" font-family="Aller" font-size="26.0" fill="#FEFFFF" transform="matrix(1.00, 0.00, -0.00, -1.00, 78.6, 6.0)">s</text><text xml:space="preserve" font-family="Aller" font-size="26.0" fill="#FEFFFF" transform="matrix(1.00, 0.00, -0.00, -1.00, 90.5, 6.0)">t</text><text xml:space="preserve" font-family="Aller" font-size="26.0" fill="#FEFFFF" transform="matrix(1.00, 0.00, -0.00, -1.00, 99.8, 6.0)">a</text><text xml:space="preserve" font-family="Aller" font-size="26.0" fill="#FEFFFF" transform="matrix(1.00, 0.00, -0.00, -1.00, 113.2, 6.0)">t</text><text xml:space="preserve" font-family="Aller" font-size="26.0" fill="#FEFFFF" transform="matrix(1.00, 0.00, -0.00, -1.00, 122.5, 6.0)"> </text><text xml:space="preserve" font-family="Aller" font-size="26.0" fill="#FEFFFF" transform="matrix(1.00, 0.00, -0.00, -1.00, 128.7, 6.0)">(</text><text xml:space="preserve" font-family="Aller" font-size="26.0" fill="#FEFFFF" transform="matrix(1.00, 0.00, -0.00, -1.00, 137.0, 6.0)">h</text><text xml:space="preserve" font-family="Aller" font-size="26.0" fill="#FEFFFF" transform="matrix(1.00, 0.00, -0.00, -1.00, 152.0, 6.0)">e</text><text xml:space="preserve" font-family="Aller" font-size="26.0" fill="#FEFFFF" transform="matrix(1.00, 0.00, -0.00, -1.00, 166.5, 6.0)">l</text><text xml:space="preserve" font-family="Aller" font-size="26.0" fill="#FEFFFF" transform="matrix(1.00, 0.00, -0.00, -1.00, 174.2, 6.0)">i</text><text xml:space="preserve" font-family="Aller" font-size="26.0" fill="#FEFFFF" transform="matrix(1.00, 0.00, -0.00, -1.00, 181.7, 6.0)">k</text><text xml:space="preserve" font-family="Aller" font-size="26.0" fill="#FEFFFF" transform="matrix(1.00, 0.00, -0.00, -1.00, 195.1, 6.0)">i</text><text xml:space="preserve" font-family="Aller" font-size="26.0" fill="#FEFFFF" transform="matrix(1.00, 0.00, -0.00, -1.00, 202.5, 6.0)">t</text><text xml:space="preserve" font-family="Aller" font-size="26.0" fill="#FEFFFF" transform="matrix(1.00, 0.00, -0.00, -1.00, 211.8, 6.0)">e</text><text xml:space="preserve" font-family="Aller" font-size="26.0" fill="#FEFFFF" transform="matrix(1.00, 0.00, -0.00, -1.00, 226.3, 6.0)">)</text></g></svg>