<?xml version="1.0" encoding="UTF-8" standalone="no"?><svg xmlns="http://www.w3.org/2000/svg" xmlns:xlink="http://www.w3.org/1999/xlink" clip-rule="evenodd" stroke-miterlimit="4.00" viewBox="0 0 720 540"><desc>SVG generated by Keynote</desc><defs></defs><g transform="matrix(1.00, 0.00, -0.00, -1.00, 0.0, 540.0)"><path d="M 0.0 540.0 L 720.0 540.0 L 720.0 0.0 L 0.0 0.0 Z M 0.0 540.0 " fill="#000000"></path><text xml:space="preserve" font-family="ArialMT" font-size="60.0" fill="#FFFFFF" transform="matrix(1.00, 0.00, -0.00, -1.00, 52.0, 282.0)">L</text><text xml:space="preserve" font-family="ArialMT" font-size="60.0" fill="#FFFFFF" transform="matrix(1.00, 0.00, -0.00, -1.00, 85.4, 282.0)">e</text><text xml:space="preserve" font-family="ArialMT" font-size="60.0" fill="#FFFFFF" transform="matrix(1.00, 0.00, -0.00, -1.00, 118.8, 282.0)">t</text><text xml:space="preserve" font-family="ArialMT" font-size="60.0" fill="#FFFFFF" transform="matrix(1.00, 0.00, -0.00, -1.00, 135.4, 282.0)">’</text><text xml:space="preserve" font-family="ArialMT" font-size="60.0" fill="#FFFFFF" transform="matrix(1.00, 0.00, -0.00, -1.00, 147.7, 282.0)">s</text><text xml:space="preserve" font-family="ArialMT" font-size="60.0" fill="#FFFFFF" transform="matrix(1.00, 0.00, -0.00, -1.00, 177.7, 282.0)"> </text><text xml:space="preserve" font-family="ArialMT" font-size="60.0" fill="#FFFFFF" transform="matrix(1.00, 0.00, -0.00, -1.00, 194.3, 282.0)">t</text><text xml:space="preserve" font-family="ArialMT" font-size="60.0" fill="#FFFFFF" transform="matrix(1.00, 0.00, -0.00, -1.00, 211.0, 282.0)">a</text><text xml:space="preserve" font-family="ArialMT" font-size="60.0" fill="#FFFFFF" transform="matrix(1.00, 0.00, -0.00, -1.00, 244.4, 282.0)">l</text><text xml:space="preserve" font-family="ArialMT" font-size="60.0" fill="#FFFFFF" transform="matrix(1.00, 0.00, -0.00, -1.00, 257.7, 282.0)">k</text><text xml:space="preserve" font-family="ArialMT" font-size="60.0" fill="#FFFFFF" transform="matrix(1.00, 0.00, -0.00, -1.00, 287.7, 282.0)"> </text><text xml:space="preserve" font-family="ArialMT" font-size="60.0" fill="#FFFFFF" transform="matrix(1.00, 0.00, -0.00, -1.00, 304.4, 282.0)">a</text><text xml:space="preserve" font-family="ArialMT" font-size="60.0" fill="#FFFFFF" transform="matrix(1.00, 0.00, -0.00, -1.00, 337.8, 282.0)"> </text><text xml:space="preserve" font-family="ArialMT" font-size="60.0" fill="#FFFFFF" transform="matrix(1.00, 0.00, -0.00, -1.00, 354.4, 282.0)">l</text><text xml:space="preserve" font-family="ArialMT" font-size="60.0" fill="#FFFFFF" transform="matrix(1.00, 0.00, -0.00, -1.00, 367.8, 282.0)">i</text><text xml:space="preserve" font-family="ArialMT" font-size="60.0" fill="#FFFFFF" transform="matrix(1.00, 0.00, -0.00, -1.00, 381.1, 282.0)">t</text><text xml:space="preserve" font-family="ArialMT" font-size="60.0" fill="#FFFFFF" transform="matrix(1.00, 0.00, -0.00, -1.00, 397.8, 282.0)">t</text><text xml:space="preserve" font-family="ArialMT" font-size="60.0" fill="#FFFFFF" transform="matrix(1.00, 0.00, -0.00, -1.00, 414.4, 282.0)">l</text><text xml:space="preserve" font-family="ArialMT" font-size="60.0" fill="#FFFFFF" transform="matrix(1.00, 0.00, -0.00, -1.00, 427.8, 282.0)">e</text><text xml:space="preserve" font-family="ArialMT" font-size="60.0" fill="#FFFFFF" transform="matrix(1.00, 0.00, -0.00, -1.00, 461.1, 282.0)"> </text><text xml:space="preserve" font-family="ArialMT" font-size="60.0" fill="#FFFFFF" transform="matrix(1.00, 0.00, -0.00, -1.00, 477.8, 282.0)">a</text><text xml:space="preserve" font-family="ArialMT" font-size="60.0" fill="#FFFFFF" transform="matrix(1.00, 0.00, -0.00, -1.00, 511.2, 282.0)">b</text><text xml:space="preserve" font-family="ArialMT" font-size="60.0" fill="#FFFFFF" transform="matrix(1.00, 0.00, -0.00, -1.00, 544.6, 282.0)">o</text><text xml:space="preserve" font-family="ArialMT" font-size="60.0" fill="#FFFFFF" transform="matrix(1.00, 0.00, -0.00, -1.00, 577.9, 282.0)">u</text><text xml:space="preserve" font-family="ArialMT" font-size="60.0" fill="#FFFFFF" transform="matrix(1.00, 0.00, -0.00, -1.00, 611.3, 282.0)">t</text><text xml:space="preserve" font-family="ArialMT" font-size="60.0" fill="#FFFFFF" transform="matrix(1.00, 0.00, -0.00, -1.00, 628.0, 282.0)"> </text><text xml:space="preserve" font-family="ArialMT" font-size="60.0" fill="#FFFFFF" transform="matrix(1.00, 0.00, -0.00, -1.00, 52.0, 219.0)">c</text><text xml:space="preserve" font-family="ArialMT" font-size="60.0" fill="#FFFFFF" transform="matrix(1.00, 0.00, -0.00, -1.00, 82.0, 219.0)">o</text><text xml:space="preserve" font-family="ArialMT" font-size="60.0" fill="#FFFFFF" transform="matrix(1.00, 0.00, -0.00, -1.00, 115.4, 219.0)">n</text><text xml:space="preserve" font-family="ArialMT" font-size="60.0" fill="#FFFFFF" transform="matrix(1.00, 0.00, -0.00, -1.00, 148.8, 219.0)">t</text><text xml:space="preserve" font-family="ArialMT" font-size="60.0" fill="#FFFFFF" transform="matrix(1.00, 0.00, -0.00, -1.00, 165.4, 219.0)">r</text><text xml:space="preserve" font-family="ArialMT" font-size="60.0" fill="#FFFFFF" transform="matrix(1.00, 0.00, -0.00, -1.00, 185.4, 219.0)">o</text><text xml:space="preserve" font-family="ArialMT" font-size="60.0" fill="#FFFFFF" transform="matrix(1.00, 0.00, -0.00, -1.00, 218.8, 219.0)">l</text><text xml:space="preserve" font-family="ArialMT" font-size="60.0" fill="#FFFFFF" transform="matrix(1.00, 0.00, -0.00, -1.00, 232.1, 219.0)">l</text><text xml:space="preserve" font-family="ArialMT" font-size="60.0" fill="#FFFFFF" transform="matrix(1.00, 0.00, -0.00, -1.00, 245.5, 219.0)">e</text><text xml:space="preserve" font-family="ArialMT" font-size="60.0" fill="#FFFFFF" transform="matrix(1.00, 0.00, -0.00, -1.00, 278.8, 219.0)">d</text><text xml:space="preserve" font-family="ArialMT" font-size="60.0" fill="#FFFFFF" transform="matrix(1.00, 0.00, -0.00, -1.00, 312.2, 219.0)"> </text><text xml:space="preserve" font-family="ArialMT" font-size="60.0" fill="#FFFFFF" transform="matrix(1.00, 0.00, -0.00, -1.00, 328.9, 219.0)">a</text><text xml:space="preserve" font-family="ArialMT" font-size="60.0" fill="#FFFFFF" transform="matrix(1.00, 0.00, -0.00, -1.00, 362.3, 219.0)">i</text><text xml:space="preserve" font-family="ArialMT" font-size="60.0" fill="#FFFFFF" transform="matrix(1.00, 0.00, -0.00, -1.00, 375.6, 219.0)">r</text><text xml:space="preserve" font-family="ArialMT" font-size="60.0" fill="#FFFFFF" transform="matrix(1.00, 0.00, -0.00, -1.00, 395.6, 219.0)">s</text><text xml:space="preserve" font-family="ArialMT" font-size="60.0" fill="#FFFFFF" transform="matrix(1.00, 0.00, -0.00, -1.00, 425.6, 219.0)">p</text><text xml:space="preserve" font-family="ArialMT" font-size="60.0" fill="#FFFFFF" transform="matrix(1.00, 0.00, -0.00, -1.00, 459.0, 219.0)">a</text><text xml:space="preserve" font-family="ArialMT" font-size="60.0" fill="#FFFFFF" transform="matrix(1.00, 0.00, -0.00, -1.00, 492.4, 219.0)">c</text><text xml:space="preserve" font-family="ArialMT" font-size="60.0" fill="#FFFFFF" transform="matrix(1.00, 0.00, -0.00, -1.00, 522.4, 219.0)">e</text><text xml:space="preserve" font-family="ArialMT" font-size="60.0" fill="#FFFFFF" transform="matrix(1.00, 0.00, -0.00, -1.00, 555.7, 219.0)">…</text></g></svg>