<?xml version="1.0" encoding="UTF-8" standalone="no"?><svg xmlns="http://www.w3.org/2000/svg" xmlns:xlink="http://www.w3.org/1999/xlink" clip-rule="evenodd" stroke-miterlimit="4.00" viewBox="0 0 309 29"><desc>SVG generated by Keynote</desc><defs></defs><g transform="matrix(1.00, 0.00, -0.00, -1.00, 0.0, 29.0)"><text xml:space="preserve" font-family="Helvetica-Bold" font-weight="bold" font-size="19.5" fill="#98C59A" transform="matrix(1.00, 0.00, -0.00, -1.00, 0.5, 10.2)">•</text><text xml:space="preserve" font-family="Helvetica-Bold" font-weight="bold" font-size="26.0" fill="#98C59A" transform="matrix(1.00, 0.00, -0.00, -1.00, 24.0, 8.0)">R</text><text xml:space="preserve" font-family="Helvetica-Bold" font-weight="bold" font-size="26.0" fill="#98C59A" transform="matrix(1.00, 0.00, -0.00, -1.00, 42.8, 8.0)">G</text><text xml:space="preserve" font-family="Helvetica-Bold" font-weight="bold" font-size="26.0" fill="#98C59A" transform="matrix(1.00, 0.00, -0.00, -1.00, 63.0, 8.0)">B</text><text xml:space="preserve" font-family="Helvetica-Bold" font-weight="bold" font-size="26.0" fill="#98C59A" transform="matrix(1.00, 0.00, -0.00, -1.00, 81.8, 8.0)"> </text><text xml:space="preserve" font-family="Helvetica-Bold" font-weight="bold" font-size="26.0" fill="#98C59A" transform="matrix(1.00, 0.00, -0.00, -1.00, 89.0, 8.0)">(</text><text xml:space="preserve" font-family="Helvetica-Bold" font-weight="bold" font-size="26.0" fill="#98C59A" transform="matrix(1.00, 0.00, -0.00, -1.00, 97.7, 8.0)">R</text><text xml:space="preserve" font-family="Helvetica-Bold" font-weight="bold" font-size="26.0" fill="#98C59A" transform="matrix(1.00, 0.00, -0.00, -1.00, 116.4, 8.0)">e</text><text xml:space="preserve" font-family="Helvetica-Bold" font-weight="bold" font-size="26.0" fill="#98C59A" transform="matrix(1.00, 0.00, -0.00, -1.00, 130.9, 8.0)">d</text><text xml:space="preserve" font-family="Helvetica-Bold" font-weight="bold" font-size="26.0" fill="#98C59A" transform="matrix(1.00, 0.00, -0.00, -1.00, 146.8, 8.0)">,</text><text xml:space="preserve" font-family="Helvetica-Bold" font-weight="bold" font-size="26.0" fill="#98C59A" transform="matrix(1.00, 0.00, -0.00, -1.00, 154.0, 8.0)"> </text><text xml:space="preserve" font-family="Helvetica-Bold" font-weight="bold" font-size="26.0" fill="#98C59A" transform="matrix(1.00, 0.00, -0.00, -1.00, 161.2, 8.0)">G</text><text xml:space="preserve" font-family="Helvetica-Bold" font-weight="bold" font-size="26.0" fill="#98C59A" transform="matrix(1.00, 0.00, -0.00, -1.00, 181.4, 8.0)">r</text><text xml:space="preserve" font-family="Helvetica-Bold" font-weight="bold" font-size="26.0" fill="#98C59A" transform="matrix(1.00, 0.00, -0.00, -1.00, 191.6, 8.0)">e</text><text xml:space="preserve" font-family="Helvetica-Bold" font-weight="bold" font-size="26.0" fill="#98C59A" transform="matrix(1.00, 0.00, -0.00, -1.00, 206.0, 8.0)">e</text><text xml:space="preserve" font-family="Helvetica-Bold" font-weight="bold" font-size="26.0" fill="#98C59A" transform="matrix(1.00, 0.00, -0.00, -1.00, 220.5, 8.0)">n</text><text xml:space="preserve" font-family="Helvetica-Bold" font-weight="bold" font-size="26.0" fill="#98C59A" transform="matrix(1.00, 0.00, -0.00, -1.00, 236.4, 8.0)">,</text><text xml:space="preserve" font-family="Helvetica-Bold" font-weight="bold" font-size="26.0" fill="#98C59A" transform="matrix(1.00, 0.00, -0.00, -1.00, 243.6, 8.0)"> </text><text xml:space="preserve" font-family="Helvetica-Bold" font-weight="bold" font-size="26.0" fill="#98C59A" transform="matrix(1.00, 0.00, -0.00, -1.00, 250.8, 8.0)">B</text><text xml:space="preserve" font-family="Helvetica-Bold" font-weight="bold" font-size="26.0" fill="#98C59A" transform="matrix(1.00, 0.00, -0.00, -1.00, 269.6, 8.0)">l</text><text xml:space="preserve" font-family="Helvetica-Bold" font-weight="bold" font-size="26.0" fill="#98C59A" transform="matrix(1.00, 0.00, -0.00, -1.00, 276.8, 8.0)">u</text><text xml:space="preserve" font-family="Helvetica-Bold" font-weight="bold" font-size="26.0" fill="#98C59A" transform="matrix(1.00, 0.00, -0.00, -1.00, 292.7, 8.0)">e</text></g></svg>