<?xml version="1.0" encoding="UTF-8" standalone="no"?><svg xmlns="http://www.w3.org/2000/svg" xmlns:xlink="http://www.w3.org/1999/xlink" clip-rule="evenodd" stroke-miterlimit="4.00" viewBox="0 0 720 540"><desc>SVG generated by Keynote</desc><defs></defs><g transform="matrix(1.00, 0.00, -0.00, -1.00, 0.0, 540.0)"><path d="M 0.0 540.0 L 720.0 540.0 L 720.0 0.0 L 0.0 0.0 Z M 0.0 540.0 " fill="#000000"></path><text xml:space="preserve" font-family="Helvetica-Light" font-size="56.0" fill="#FEFFFF" transform="matrix(1.00, 0.00, -0.00, -1.00, 259.0, 445.0)">S</text><text xml:space="preserve" font-family="Helvetica-Light" font-size="56.0" fill="#FEFFFF" transform="matrix(1.00, 0.00, -0.00, -1.00, 293.2, 445.0)">e</text><text xml:space="preserve" font-family="Helvetica-Light" font-size="56.0" fill="#FEFFFF" transform="matrix(1.00, 0.00, -0.00, -1.00, 324.4, 445.0)">n</text><text xml:space="preserve" font-family="Helvetica-Light" font-size="56.0" fill="#FEFFFF" transform="matrix(1.00, 0.00, -0.00, -1.00, 355.5, 445.0)">s</text><text xml:space="preserve" font-family="Helvetica-Light" font-size="56.0" fill="#FEFFFF" transform="matrix(1.00, 0.00, -0.00, -1.00, 383.5, 445.0)">o</text><text xml:space="preserve" font-family="Helvetica-Light" font-size="56.0" fill="#FEFFFF" transform="matrix(1.00, 0.00, -0.00, -1.00, 414.6, 445.0)">r</text><text xml:space="preserve" font-family="Helvetica-Light" font-size="56.0" fill="#FEFFFF" transform="matrix(1.00, 0.00, -0.00, -1.00, 433.3, 445.0)">s</text><text xml:space="preserve" font-family="Helvetica-Bold" font-weight="bold" font-size="19.5" fill="#98C59A" transform="matrix(1.00, 0.00, -0.00, -1.00, 55.5, 336.2)">•</text><text xml:space="preserve" font-family="Helvetica-Bold" font-weight="bold" font-size="26.0" fill="#98C59A" transform="matrix(1.00, 0.00, -0.00, -1.00, 79.0, 334.0)">R</text><text xml:space="preserve" font-family="Helvetica-Bold" font-weight="bold" font-size="26.0" fill="#98C59A" transform="matrix(1.00, 0.00, -0.00, -1.00, 97.8, 334.0)">G</text><text xml:space="preserve" font-family="Helvetica-Bold" font-weight="bold" font-size="26.0" fill="#98C59A" transform="matrix(1.00, 0.00, -0.00, -1.00, 118.0, 334.0)">B</text><text xml:space="preserve" font-family="Helvetica-Bold" font-weight="bold" font-size="26.0" fill="#98C59A" transform="matrix(1.00, 0.00, -0.00, -1.00, 136.8, 334.0)"> </text><text xml:space="preserve" font-family="Helvetica-Bold" font-weight="bold" font-size="26.0" fill="#98C59A" transform="matrix(1.00, 0.00, -0.00, -1.00, 144.0, 334.0)">(</text><text xml:space="preserve" font-family="Helvetica-Bold" font-weight="bold" font-size="26.0" fill="#98C59A" transform="matrix(1.00, 0.00, -0.00, -1.00, 152.7, 334.0)">R</text><text xml:space="preserve" font-family="Helvetica-Bold" font-weight="bold" font-size="26.0" fill="#98C59A" transform="matrix(1.00, 0.00, -0.00, -1.00, 171.4, 334.0)">e</text><text xml:space="preserve" font-family="Helvetica-Bold" font-weight="bold" font-size="26.0" fill="#98C59A" transform="matrix(1.00, 0.00, -0.00, -1.00, 185.9, 334.0)">d</text><text xml:space="preserve" font-family="Helvetica-Bold" font-weight="bold" font-size="26.0" fill="#98C59A" transform="matrix(1.00, 0.00, -0.00, -1.00, 201.8, 334.0)">,</text><text xml:space="preserve" font-family="Helvetica-Bold" font-weight="bold" font-size="26.0" fill="#98C59A" transform="matrix(1.00, 0.00, -0.00, -1.00, 209.0, 334.0)"> </text><text xml:space="preserve" font-family="Helvetica-Bold" font-weight="bold" font-size="26.0" fill="#98C59A" transform="matrix(1.00, 0.00, -0.00, -1.00, 216.2, 334.0)">G</text><text xml:space="preserve" font-family="Helvetica-Bold" font-weight="bold" font-size="26.0" fill="#98C59A" transform="matrix(1.00, 0.00, -0.00, -1.00, 236.4, 334.0)">r</text><text xml:space="preserve" font-family="Helvetica-Bold" font-weight="bold" font-size="26.0" fill="#98C59A" transform="matrix(1.00, 0.00, -0.00, -1.00, 246.6, 334.0)">e</text><text xml:space="preserve" font-family="Helvetica-Bold" font-weight="bold" font-size="26.0" fill="#98C59A" transform="matrix(1.00, 0.00, -0.00, -1.00, 261.0, 334.0)">e</text><text xml:space="preserve" font-family="Helvetica-Bold" font-weight="bold" font-size="26.0" fill="#98C59A" transform="matrix(1.00, 0.00, -0.00, -1.00, 275.5, 334.0)">n</text><text xml:space="preserve" font-family="Helvetica-Bold" font-weight="bold" font-size="26.0" fill="#98C59A" transform="matrix(1.00, 0.00, -0.00, -1.00, 291.4, 334.0)">,</text><text xml:space="preserve" font-family="Helvetica-Bold" font-weight="bold" font-size="26.0" fill="#98C59A" transform="matrix(1.00, 0.00, -0.00, -1.00, 298.6, 334.0)"> </text><text xml:space="preserve" font-family="Helvetica-Bold" font-weight="bold" font-size="26.0" fill="#98C59A" transform="matrix(1.00, 0.00, -0.00, -1.00, 305.8, 334.0)">B</text><text xml:space="preserve" font-family="Helvetica-Bold" font-weight="bold" font-size="26.0" fill="#98C59A" transform="matrix(1.00, 0.00, -0.00, -1.00, 324.6, 334.0)">l</text><text xml:space="preserve" font-family="Helvetica-Bold" font-weight="bold" font-size="26.0" fill="#98C59A" transform="matrix(1.00, 0.00, -0.00, -1.00, 331.8, 334.0)">u</text><text xml:space="preserve" font-family="Helvetica-Bold" font-weight="bold" font-size="26.0" fill="#98C59A" transform="matrix(1.00, 0.00, -0.00, -1.00, 347.7, 334.0)">e</text><text xml:space="preserve" font-family="Helvetica-Bold" font-weight="bold" font-size="19.5" fill="#98C59A" transform="matrix(1.00, 0.00, -0.00, -1.00, 55.5, 275.7)">•</text><text xml:space="preserve" font-family="Helvetica-Bold" font-weight="bold" font-size="26.0" fill="#98C59A" transform="matrix(1.00, 0.00, -0.00, -1.00, 79.0, 273.0)">C</text><text xml:space="preserve" font-family="Helvetica-Bold" font-weight="bold" font-size="26.0" fill="#98C59A" transform="matrix(1.00, 0.00, -0.00, -1.00, 97.8, 273.0)">I</text><text xml:space="preserve" font-family="Helvetica-Bold" font-weight="bold" font-size="26.0" fill="#98C59A" transform="matrix(1.00, 0.00, -0.00, -1.00, 105.0, 273.0)">R</text><text xml:space="preserve" font-family="Helvetica-Bold" font-weight="bold" font-size="26.0" fill="#98C59A" transform="matrix(1.00, 0.00, -0.00, -1.00, 123.8, 273.0)"> </text><text xml:space="preserve" font-family="Helvetica-Bold" font-weight="bold" font-size="26.0" fill="#98C59A" transform="matrix(1.00, 0.00, -0.00, -1.00, 131.0, 273.0)">(</text><text xml:space="preserve" font-family="Helvetica-Bold" font-weight="bold" font-size="26.0" fill="#98C59A" transform="matrix(1.00, 0.00, -0.00, -1.00, 139.7, 273.0)">C</text><text xml:space="preserve" font-family="Helvetica-Bold" font-weight="bold" font-size="26.0" fill="#98C59A" transform="matrix(1.00, 0.00, -0.00, -1.00, 158.4, 273.0)">o</text><text xml:space="preserve" font-family="Helvetica-Bold" font-weight="bold" font-size="26.0" fill="#98C59A" transform="matrix(1.00, 0.00, -0.00, -1.00, 174.3, 273.0)">l</text><text xml:space="preserve" font-family="Helvetica-Bold" font-weight="bold" font-size="26.0" fill="#98C59A" transform="matrix(1.00, 0.00, -0.00, -1.00, 181.5, 273.0)">o</text><text xml:space="preserve" font-family="Helvetica-Bold" font-weight="bold" font-size="26.0" fill="#98C59A" transform="matrix(1.00, 0.00, -0.00, -1.00, 197.4, 273.0)">r</text><text xml:space="preserve" font-family="Helvetica-Bold" font-weight="bold" font-size="26.0" fill="#98C59A" transform="matrix(1.00, 0.00, -0.00, -1.00, 207.5, 273.0)"> </text><text xml:space="preserve" font-family="Helvetica-Bold" font-weight="bold" font-size="26.0" fill="#98C59A" transform="matrix(1.00, 0.00, -0.00, -1.00, 214.8, 273.0)">I</text><text xml:space="preserve" font-family="Helvetica-Bold" font-weight="bold" font-size="26.0" fill="#98C59A" transform="matrix(1.00, 0.00, -0.00, -1.00, 222.0, 273.0)">n</text><text xml:space="preserve" font-family="Helvetica-Bold" font-weight="bold" font-size="26.0" fill="#98C59A" transform="matrix(1.00, 0.00, -0.00, -1.00, 237.8, 273.0)">f</text><text xml:space="preserve" font-family="Helvetica-Bold" font-weight="bold" font-size="26.0" fill="#98C59A" transform="matrix(1.00, 0.00, -0.00, -1.00, 246.5, 273.0)">r</text><text xml:space="preserve" font-family="Helvetica-Bold" font-weight="bold" font-size="26.0" fill="#98C59A" transform="matrix(1.00, 0.00, -0.00, -1.00, 256.6, 273.0)">a</text><text xml:space="preserve" font-family="Helvetica-Bold" font-weight="bold" font-size="26.0" fill="#98C59A" transform="matrix(1.00, 0.00, -0.00, -1.00, 271.1, 273.0)">r</text><text xml:space="preserve" font-family="Helvetica-Bold" font-weight="bold" font-size="26.0" fill="#98C59A" transform="matrix(1.00, 0.00, -0.00, -1.00, 281.2, 273.0)">e</text><text xml:space="preserve" font-family="Helvetica-Bold" font-weight="bold" font-size="26.0" fill="#98C59A" transform="matrix(1.00, 0.00, -0.00, -1.00, 295.7, 273.0)">d</text><text xml:space="preserve" font-family="Helvetica-Bold" font-weight="bold" font-size="26.0" fill="#98C59A" transform="matrix(1.00, 0.00, -0.00, -1.00, 311.6, 273.0)">)</text><text xml:space="preserve" font-family="Helvetica-Light" font-size="19.5" fill="#FEFFFF" transform="matrix(1.00, 0.00, -0.00, -1.00, 55.5, 215.2)">•</text><text xml:space="preserve" font-family="Helvetica-Light" font-size="26.0" fill="#FEFFFF" transform="matrix(1.00, 0.00, -0.00, -1.00, 79.0, 213.0)">T</text><text xml:space="preserve" font-family="Helvetica-Light" font-size="26.0" fill="#FEFFFF" transform="matrix(1.00, 0.00, -0.00, -1.00, 93.5, 213.0)">h</text><text xml:space="preserve" font-family="Helvetica-Light" font-size="26.0" fill="#FEFFFF" transform="matrix(1.00, 0.00, -0.00, -1.00, 107.9, 213.0)">e</text><text xml:space="preserve" font-family="Helvetica-Light" font-size="26.0" fill="#FEFFFF" transform="matrix(1.00, 0.00, -0.00, -1.00, 122.4, 213.0)">r</text><text xml:space="preserve" font-family="Helvetica-Light" font-size="26.0" fill="#FEFFFF" transform="matrix(1.00, 0.00, -0.00, -1.00, 131.5, 213.0)">m</text><text xml:space="preserve" font-family="Helvetica-Light" font-size="26.0" fill="#FEFFFF" transform="matrix(1.00, 0.00, -0.00, -1.00, 153.2, 213.0)">a</text><text xml:space="preserve" font-family="Helvetica-Light" font-size="26.0" fill="#FEFFFF" transform="matrix(1.00, 0.00, -0.00, -1.00, 167.6, 213.0)">l</text><text xml:space="preserve" font-family="Helvetica-Light" font-size="26.0" fill="#FEFFFF" transform="matrix(1.00, 0.00, -0.00, -1.00, 173.4, 213.0)"> </text><text xml:space="preserve" font-family="Helvetica-Light" font-size="26.0" fill="#FEFFFF" transform="matrix(1.00, 0.00, -0.00, -1.00, 180.6, 213.0)">I</text><text xml:space="preserve" font-family="Helvetica-Light" font-size="26.0" fill="#FEFFFF" transform="matrix(1.00, 0.00, -0.00, -1.00, 187.8, 213.0)">n</text><text xml:space="preserve" font-family="Helvetica-Light" font-size="26.0" fill="#FEFFFF" transform="matrix(1.00, 0.00, -0.00, -1.00, 202.3, 213.0)">f</text><text xml:space="preserve" font-family="Helvetica-Light" font-size="26.0" fill="#FEFFFF" transform="matrix(1.00, 0.00, -0.00, -1.00, 209.5, 213.0)">r</text><text xml:space="preserve" font-family="Helvetica-Light" font-size="26.0" fill="#FEFFFF" transform="matrix(1.00, 0.00, -0.00, -1.00, 218.2, 213.0)">a</text><text xml:space="preserve" font-family="Helvetica-Light" font-size="26.0" fill="#FEFFFF" transform="matrix(1.00, 0.00, -0.00, -1.00, 232.6, 213.0)">r</text><text xml:space="preserve" font-family="Helvetica-Light" font-size="26.0" fill="#FEFFFF" transform="matrix(1.00, 0.00, -0.00, -1.00, 240.8, 213.0)">e</text><text xml:space="preserve" font-family="Helvetica-Light" font-size="26.0" fill="#FEFFFF" transform="matrix(1.00, 0.00, -0.00, -1.00, 255.3, 213.0)">d</text><text xml:space="preserve" font-family="Helvetica-Light" font-size="19.5" fill="#FEFFFF" transform="matrix(1.00, 0.00, -0.00, -1.00, 55.5, 154.6)">•</text><text xml:space="preserve" font-family="Helvetica-Light" font-size="26.0" fill="#FEFFFF" transform="matrix(1.00, 0.00, -0.00, -1.00, 79.0, 152.0)">N</text><text xml:space="preserve" font-family="Helvetica-Light" font-size="26.0" fill="#FEFFFF" transform="matrix(1.00, 0.00, -0.00, -1.00, 97.8, 152.0)">a</text><text xml:space="preserve" font-family="Helvetica-Light" font-size="26.0" fill="#FEFFFF" transform="matrix(1.00, 0.00, -0.00, -1.00, 112.2, 152.0)">r</text><text xml:space="preserve" font-family="Helvetica-Light" font-size="26.0" fill="#FEFFFF" transform="matrix(1.00, 0.00, -0.00, -1.00, 120.9, 152.0)">r</text><text xml:space="preserve" font-family="Helvetica-Light" font-size="26.0" fill="#FEFFFF" transform="matrix(1.00, 0.00, -0.00, -1.00, 129.1, 152.0)">o</text><text xml:space="preserve" font-family="Helvetica-Light" font-size="26.0" fill="#FEFFFF" transform="matrix(1.00, 0.00, -0.00, -1.00, 143.5, 152.0)">w</text><text xml:space="preserve" font-family="Helvetica-Light" font-size="26.0" fill="#FEFFFF" transform="matrix(1.00, 0.00, -0.00, -1.00, 162.3, 152.0)"> </text><text xml:space="preserve" font-family="Helvetica-Light" font-size="26.0" fill="#FEFFFF" transform="matrix(1.00, 0.00, -0.00, -1.00, 169.5, 152.0)">B</text><text xml:space="preserve" font-family="Helvetica-Light" font-size="26.0" fill="#FEFFFF" transform="matrix(1.00, 0.00, -0.00, -1.00, 186.9, 152.0)">a</text><text xml:space="preserve" font-family="Helvetica-Light" font-size="26.0" fill="#FEFFFF" transform="matrix(1.00, 0.00, -0.00, -1.00, 201.3, 152.0)">n</text><text xml:space="preserve" font-family="Helvetica-Light" font-size="26.0" fill="#FEFFFF" transform="matrix(1.00, 0.00, -0.00, -1.00, 215.8, 152.0)">d</text><text xml:space="preserve" font-family="Helvetica-Light" font-size="26.0" fill="#FEFFFF" transform="matrix(1.00, 0.00, -0.00, -1.00, 231.7, 152.0)"> </text><text xml:space="preserve" font-family="Helvetica-Light" font-size="26.0" fill="#FEFFFF" transform="matrix(1.00, 0.00, -0.00, -1.00, 238.9, 152.0)">S</text><text xml:space="preserve" font-family="Helvetica-Light" font-size="26.0" fill="#FEFFFF" transform="matrix(1.00, 0.00, -0.00, -1.00, 254.8, 152.0)">e</text><text xml:space="preserve" font-family="Helvetica-Light" font-size="26.0" fill="#FEFFFF" transform="matrix(1.00, 0.00, -0.00, -1.00, 269.2, 152.0)">n</text><text xml:space="preserve" font-family="Helvetica-Light" font-size="26.0" fill="#FEFFFF" transform="matrix(1.00, 0.00, -0.00, -1.00, 283.7, 152.0)">s</text><text xml:space="preserve" font-family="Helvetica-Light" font-size="26.0" fill="#FEFFFF" transform="matrix(1.00, 0.00, -0.00, -1.00, 296.7, 152.0)">o</text><text xml:space="preserve" font-family="Helvetica-Light" font-size="26.0" fill="#FEFFFF" transform="matrix(1.00, 0.00, -0.00, -1.00, 311.2, 152.0)">r</text><text xml:space="preserve" font-family="Helvetica-Light" font-size="26.0" fill="#FEFFFF" transform="matrix(1.00, 0.00, -0.00, -1.00, 319.8, 152.0)">s</text><text xml:space="preserve" font-family="Helvetica-Light" font-size="26.0" fill="#FEFFFF" transform="matrix(1.00, 0.00, -0.00, -1.00, 332.8, 152.0)"> </text><text xml:space="preserve" font-family="Helvetica-Light" font-size="19.5" fill="#FEFFFF" transform="matrix(1.00, 0.00, -0.00, -1.00, 90.5, 94.1)">•</text><text xml:space="preserve" font-family="Helvetica-Light" font-size="26.0" fill="#FEFFFF" transform="matrix(1.00, 0.00, -0.00, -1.00, 114.0, 92.0)">e</text><text xml:space="preserve" font-family="Helvetica-Light" font-size="26.0" fill="#FEFFFF" transform="matrix(1.00, 0.00, -0.00, -1.00, 128.5, 92.0)">.</text><text xml:space="preserve" font-family="Helvetica-Light" font-size="26.0" fill="#FEFFFF" transform="matrix(1.00, 0.00, -0.00, -1.00, 135.7, 92.0)">g</text><text xml:space="preserve" font-family="Helvetica-Light" font-size="26.0" fill="#FEFFFF" transform="matrix(1.00, 0.00, -0.00, -1.00, 151.6, 92.0)">.</text><text xml:space="preserve" font-family="Helvetica-Light" font-size="26.0" fill="#FEFFFF" transform="matrix(1.00, 0.00, -0.00, -1.00, 158.8, 92.0)"> </text><text xml:space="preserve" font-family="Helvetica-Light" font-size="26.0" fill="#FEFFFF" transform="matrix(1.00, 0.00, -0.00, -1.00, 166.0, 92.0)">F</text><text xml:space="preserve" font-family="Helvetica-Light" font-size="26.0" fill="#FEFFFF" transform="matrix(1.00, 0.00, -0.00, -1.00, 180.5, 92.0)">l</text><text xml:space="preserve" font-family="Helvetica-Light" font-size="26.0" fill="#FEFFFF" transform="matrix(1.00, 0.00, -0.00, -1.00, 186.3, 92.0)">u</text><text xml:space="preserve" font-family="Helvetica-Light" font-size="26.0" fill="#FEFFFF" transform="matrix(1.00, 0.00, -0.00, -1.00, 200.7, 92.0)">o</text><text xml:space="preserve" font-family="Helvetica-Light" font-size="26.0" fill="#FEFFFF" transform="matrix(1.00, 0.00, -0.00, -1.00, 215.2, 92.0)">r</text><text xml:space="preserve" font-family="Helvetica-Light" font-size="26.0" fill="#FEFFFF" transform="matrix(1.00, 0.00, -0.00, -1.00, 223.4, 92.0)">e</text><text xml:space="preserve" font-family="Helvetica-Light" font-size="26.0" fill="#FEFFFF" transform="matrix(1.00, 0.00, -0.00, -1.00, 237.8, 92.0)">s</text><text xml:space="preserve" font-family="Helvetica-Light" font-size="26.0" fill="#FEFFFF" transform="matrix(1.00, 0.00, -0.00, -1.00, 250.8, 92.0)">c</text><text xml:space="preserve" font-family="Helvetica-Light" font-size="26.0" fill="#FEFFFF" transform="matrix(1.00, 0.00, -0.00, -1.00, 265.3, 92.0)">e</text><text xml:space="preserve" font-family="Helvetica-Light" font-size="26.0" fill="#FEFFFF" transform="matrix(1.00, 0.00, -0.00, -1.00, 279.7, 92.0)">n</text><text xml:space="preserve" font-family="Helvetica-Light" font-size="26.0" fill="#FEFFFF" transform="matrix(1.00, 0.00, -0.00, -1.00, 294.2, 92.0)">c</text><text xml:space="preserve" font-family="Helvetica-Light" font-size="26.0" fill="#FEFFFF" transform="matrix(1.00, 0.00, -0.00, -1.00, 308.6, 92.0)">e</text></g></svg>